<svg width="184.832" height="37.762" viewBox="0 0 794 145" fill="none" xmlns="http://www.w3.org/2000/svg">
<path fill-rule="evenodd" clip-rule="evenodd" d="M0.00252088 43.1107L0 85.7992L0.495309 90.1029C0.768029 92.47 1.12398 94.6556 1.28635 94.9601C1.44872 95.2645 1.58177 95.9394 1.58177 96.4594C1.58177 96.9797 1.71419 97.7349 1.87562 98.1375C2.03736 98.5402 2.40624 99.7306 2.69535 100.783C2.98478 101.835 3.33191 102.982 3.46716 103.333C3.60242 103.684 3.96153 104.616 4.26515 105.405C5.61897 108.926 9.8198 116.931 10.4267 117.147C10.5907 117.206 10.725 117.423 10.725 117.629C10.725 117.835 11.0797 118.391 11.5132 118.864C11.9467 119.336 12.3014 119.807 12.3014 119.91C12.3014 120.013 12.6561 120.485 13.0896 120.957C13.5231 121.43 13.8778 121.93 13.8778 122.069C13.8778 122.371 21.5767 130.157 22.776 131.068C23.2379 131.419 24.0078 131.993 24.4871 132.343C24.9663 132.694 25.6126 133.232 25.9238 133.539C26.2347 133.846 26.5642 134.097 26.6559 134.097C26.7473 134.097 28.1737 134.958 29.8251 136.01C31.4766 137.062 33.0331 137.922 33.2841 137.922C33.5354 137.922 33.7406 138.03 33.7406 138.162C33.7406 138.451 37.0158 140.03 38.2362 140.33C38.7148 140.447 39.1843 140.671 39.2795 140.827C39.375 140.983 39.7282 141.11 40.0649 141.11H40.6768V141.393V141.676L42.0884 141.889C42.8646 142.007 43.5822 142.239 43.6834 142.404L43.8669 142.704H44.7941H45.7214V142.99V143.275L46.9037 143.434C47.5541 143.522 49.221 143.838 50.6082 144.137C51.9955 144.435 53.7336 144.752 54.4705 144.84L55.8104 145V93.5848V42.1693L55.4582 41.0309C54.6959 38.5675 53.4956 35.4051 53.151 34.9511C52.9514 34.6881 52.5813 34.0444 52.3287 33.521C52.0762 32.9975 51.5856 32.2177 51.2388 31.7886C50.194 30.4953 47.3807 27.6188 47.1606 27.6188C47.0474 27.6188 46.5723 27.2601 46.1051 26.8218C45.6375 26.3834 45.076 26.0248 44.8575 26.0248C44.639 26.0248 44.4602 25.8813 44.4602 25.706C44.4602 25.5307 44.2575 25.3872 44.0097 25.3872C43.7622 25.3872 43.3719 25.2023 43.1427 24.9766C42.9138 24.7509 42.2296 24.3202 41.6227 24.0199C41.0158 23.7199 39.5261 22.8974 38.3122 22.1922C37.0984 21.4874 35.5734 20.6645 34.9229 20.3639C34.2728 20.0633 33.7406 19.7075 33.7406 19.5736C33.7406 19.4397 33.5379 19.3301 33.2901 19.3301C33.0426 19.3301 32.6523 19.1509 32.423 18.9316C32.1942 18.7126 31.2972 18.161 30.4301 17.7068C27.1484 15.9859 25.3803 15.0209 25.228 14.8669C24.9319 14.5676 22.5493 13.2324 21.9963 13.0558C21.6927 12.9589 21.4446 12.753 21.4446 12.598C21.4446 12.4434 21.234 12.3165 20.9764 12.3165C20.7188 12.3165 19.8322 11.896 19.0059 11.3825C17.1028 10.1991 14.381 8.68035 12.8531 7.94967C12.203 7.63852 11.6708 7.27445 11.6708 7.14056C11.6708 7.00667 11.5151 6.897 11.3243 6.897C11.1339 6.897 9.82137 6.21541 8.40796 5.38208C6.99455 4.54906 5.27058 3.58056 4.57696 3.2302C3.88334 2.87984 3.24489 2.5212 3.15819 2.43321C3.07148 2.34554 2.57491 2.06468 2.0547 1.80964C1.53448 1.55429 0.860721 1.13794 0.557104 0.883858L0.00535927 0.422241L0.00252088 43.1107ZM122.808 1.58521C122.114 1.96426 121.476 2.36275 121.389 2.47051C121.303 2.57858 120.913 2.76731 120.522 2.89068C120.132 3.01374 119.813 3.24805 119.813 3.4116C119.813 3.57514 119.593 3.70903 119.325 3.70903C119.056 3.70903 118.099 4.17735 117.197 4.7499C116.295 5.32246 114.989 6.07546 114.295 6.42359C113.602 6.77171 112.963 7.12813 112.877 7.2158C112.735 7.35894 111.649 7.98633 109.881 8.94559C109.535 9.134 109.18 9.3597 109.093 9.44737C109.006 9.53504 108.368 9.88954 107.674 10.2354C106.981 10.581 105.884 11.1909 105.237 11.5903C104.59 11.9898 103.846 12.3165 103.582 12.3165H103.103V12.6353V12.9541H102.63C102.37 12.9541 102.157 13.0699 102.157 13.2117C102.157 13.3533 101.554 13.7349 100.817 14.06C100.08 14.3849 99.4061 14.7352 99.3194 14.8385C99.2327 14.9418 98.5943 15.312 97.9007 15.6607C97.207 16.0098 96.5686 16.3748 96.4819 16.4714C96.3952 16.5683 95.473 17.0714 94.4325 17.5894C93.3921 18.1075 92.3533 18.711 92.1244 18.9306C91.8951 19.1503 91.5048 19.3301 91.2573 19.3301C91.0095 19.3301 90.8068 19.4735 90.8068 19.6489V19.9677H90.1762C89.8294 19.9677 89.5457 20.077 89.5457 20.2109C89.5457 20.4545 88.6115 21.0302 87.5751 21.4255C87.2718 21.5412 87.0234 21.7628 87.0234 21.9177C87.0234 22.0724 86.8238 22.1992 86.5801 22.1992C86.3364 22.1992 84.9315 22.9165 83.4585 23.7932C81.9852 24.6699 80.6241 25.3872 80.4337 25.3872C80.2429 25.3872 80.0872 25.4997 80.0872 25.6371C80.0872 25.7749 79.6366 26.1565 79.0858 26.4855C76.9589 27.7559 73.0573 31.7427 72.5519 33.1623C72.4826 33.3571 72.3407 33.5882 72.2366 33.6762C71.8807 33.9765 70.944 35.9585 70.944 36.4115C70.944 36.6602 70.8374 36.8639 70.7075 36.8639C70.5773 36.8639 70.2075 37.7607 69.8856 38.8564C69.5637 39.9524 69.1734 41.1785 69.0186 41.5811L68.737 42.3134V93.6569V145L70.077 144.835C71.2391 144.692 72.4731 144.465 77.4073 143.482C77.9275 143.379 78.6369 143.177 78.9837 143.034C80.0588 142.591 82.9745 141.748 83.4339 141.748C83.6742 141.748 83.8706 141.605 83.8706 141.429V141.11H84.4825C84.8193 141.11 85.1821 140.967 85.2893 140.792C85.3965 140.616 85.7241 140.472 86.0173 140.471C86.3105 140.47 87.6855 139.897 89.0727 139.198C90.46 138.498 91.7725 137.926 91.9891 137.924C92.206 137.923 92.3832 137.809 92.3832 137.67C92.3832 137.53 93.6781 136.653 95.2608 135.72C96.8432 134.786 98.4395 133.761 98.8077 133.441C99.1757 133.122 99.8179 132.565 100.235 132.204C100.652 131.842 101.111 131.546 101.257 131.546C101.582 131.546 110.67 122.495 110.67 122.17C110.67 122.042 110.847 121.737 111.064 121.493C112.229 120.179 113.822 117.896 113.822 117.541C113.822 117.354 113.934 117.201 114.07 117.201C114.206 117.201 114.585 116.735 114.913 116.165C115.241 115.595 115.591 115.057 115.69 114.969C116.088 114.619 119.182 108.282 119.182 107.816C119.182 107.542 119.301 107.318 119.446 107.318C119.591 107.318 119.975 106.493 120.299 105.485C120.623 104.477 121.001 103.516 121.139 103.349C121.276 103.182 121.389 102.745 121.389 102.377C121.389 102.008 121.516 101.571 121.671 101.404C121.963 101.092 122.573 98.755 122.875 96.7976C122.97 96.184 123.144 95.6101 123.263 95.5225C123.381 95.4348 123.678 93.9285 123.922 92.1751L124.366 88.9871L124.457 44.9135L124.549 0.839864L124.309 0.867917C124.177 0.883538 123.502 1.20616 122.808 1.58521ZM168.682 25.706V26.0248H167.942C167.079 26.0248 165.32 26.8578 164.445 27.6813C164.108 27.9975 163.718 28.2564 163.578 28.2564C163.437 28.2564 163.322 28.4716 163.322 28.7346C163.322 28.9976 163.216 29.2137 163.085 29.2147C162.768 29.2175 161.745 31.0608 161.745 31.6296C161.745 31.8782 161.604 32.0819 161.43 32.0819H161.115V45.612V59.142L161.43 59.339L161.745 59.5361V60.933V62.33L162.025 62.5047C162.179 62.6006 162.401 63.2006 162.519 63.8379C162.638 64.4752 162.854 65.2298 163 65.5151C163.146 65.8004 163.669 66.8945 164.161 67.9465C164.653 68.9986 165.162 69.9071 165.292 69.9655C165.423 70.0241 165.529 70.2129 165.529 70.3853C165.529 70.6528 166.922 72.725 167.426 73.2067C167.518 73.2944 167.828 73.7413 168.117 74.2001C169.085 75.7411 173.439 79.6352 175.248 80.5779C175.712 80.8196 176.278 81.1967 176.507 81.4157C176.736 81.635 177.127 81.8142 177.374 81.8142H177.825V82.133C177.825 82.3083 178.011 82.4518 178.239 82.4518C178.466 82.4518 179.388 82.8104 180.287 83.2488C181.185 83.6871 182.205 84.0458 182.552 84.0458C182.9 84.0458 183.185 84.1599 183.185 84.2995V84.5536L185.786 84.9926C187.216 85.2342 189.664 85.4912 191.224 85.5632L194.062 85.6946L197.372 85.1316C199.193 84.8217 200.754 84.4723 200.84 84.3547C201.027 84.1009 202.569 83.7043 203.678 83.6243L204.466 83.5676L204.417 87.1371L204.369 90.7067L204.001 91.9191C203.535 93.4592 202.998 94.6097 202.496 95.1466C202.279 95.3784 202.102 95.6847 202.102 95.8272C202.102 96.2232 199.594 98.5969 198.666 99.0796C198.215 99.3142 197.774 99.5893 197.688 99.6907C197.601 99.7921 196.794 100.115 195.894 100.409L194.259 100.942H192.013H189.766L188.131 100.435C186.468 99.9203 185.046 99.3244 184.761 99.0232C184.674 98.9317 184.249 98.6938 183.815 98.4949C182.804 98.0307 181.811 97.2653 180.21 95.7179C178.627 94.1873 177.703 93.5644 176.263 93.0569L175.145 92.6628H173.569H171.992L170.889 93.0684C168.986 93.7675 167.84 94.5071 166.98 95.5907C166.524 96.1667 166.01 96.8117 165.839 97.0233C165.668 97.235 165.529 97.6928 165.529 98.0406C165.529 98.3884 165.387 98.7614 165.214 98.8698L164.898 99.0668V101.22V103.372L165.57 104.787C165.94 105.566 166.682 106.776 167.22 107.477C168.603 109.282 172.663 113.375 173.07 113.375C173.258 113.375 173.411 113.496 173.411 113.644C173.411 113.791 173.907 114.183 174.514 114.513C175.121 114.844 175.618 115.225 175.618 115.36C175.618 115.496 175.89 115.607 176.222 115.607C176.555 115.607 176.874 115.714 176.932 115.846C177.084 116.192 179.058 117.201 179.584 117.201C179.83 117.201 180.032 117.344 180.032 117.519V117.838L180.741 117.849C181.131 117.856 181.805 118.066 182.239 118.316C182.672 118.567 183.417 118.777 183.894 118.783L184.761 118.795V119.067V119.34L186.889 119.609C189.618 119.955 194.41 119.954 197.146 119.608L199.284 119.338L199.45 119.066C199.542 118.917 199.946 118.795 200.348 118.795C200.75 118.795 201.628 118.572 202.3 118.3C203.875 117.662 208.202 115.534 208.407 115.296C208.494 115.196 208.964 114.857 209.453 114.542C210.932 113.59 211.621 112.992 213.925 110.665C216.117 108.451 217.55 106.814 217.55 106.525C217.55 106.442 218.047 105.589 218.654 104.63C219.261 103.67 219.757 102.811 219.757 102.719C219.757 102.628 220.096 101.796 220.509 100.871C221.503 98.6483 221.823 97.7088 222.501 95.0443L223.068 92.8127V62.6612V32.5098L222.437 31.2598C222.091 30.5724 221.701 29.9619 221.57 29.9036C221.44 29.8449 221.334 29.6492 221.334 29.4684C221.334 28.966 219.068 26.9783 218.263 26.774C217.871 26.6745 217.55 26.4816 217.55 26.3452C217.55 26.0615 216.191 25.7369 213.973 25.4908L212.445 25.3215L212.097 25.6732C211.906 25.8667 211.516 26.0248 211.23 26.0248C210.558 26.0248 208.735 26.9464 207.954 27.6813C207.617 27.9975 207.227 28.2564 207.087 28.2564C206.946 28.2564 206.831 28.4716 206.831 28.7346C206.831 28.9976 206.721 29.2128 206.587 29.2128C206.362 29.2128 205.863 30.1095 204.991 32.0819L204.638 32.8789L204.549 44.8338L204.459 56.7887L204.029 57.7451C202.734 60.6209 202.289 61.3698 201.223 62.4588C198.78 64.955 198.354 65.2094 194.512 66.4632C192.294 67.1872 189.888 66.833 186.653 65.3063L184.919 64.4876L183.436 62.9293C182.621 62.0721 181.866 61.0931 181.76 60.7535C181.653 60.414 181.434 60.136 181.272 60.136C181.11 60.136 180.978 59.9428 180.978 59.7069C180.978 59.4707 180.732 58.7894 180.432 58.1926L179.886 57.1075L179.706 44.6744L179.526 32.2413L178.687 30.7006L177.847 29.1598L176.657 28.0574C176.002 27.4511 175.146 26.8734 174.754 26.774C174.362 26.6745 174.041 26.4654 174.041 26.3092V26.0248H173.272H172.502L172.307 25.706L172.113 25.3872H170.397H168.682V25.706ZM241.039 25.9244C239.712 26.1137 237.413 27.0134 237.413 27.3433C237.413 27.4948 237.236 27.6201 237.019 27.6216C236.803 27.6232 236.27 28.0788 235.837 28.6341C235.403 29.1895 234.871 29.8236 234.655 30.0432C234.438 30.2626 234.26 30.656 234.26 30.9167V31.3911L233.866 31.524L233.472 31.657V55.1258V78.5947L233.866 78.9928L234.26 79.3913V80.4246V81.4578L234.576 81.6548C234.749 81.7632 234.892 82.0944 234.893 82.3909C234.894 82.6874 235.107 83.3409 235.366 83.843C235.625 84.3454 235.837 84.955 235.837 85.1979C235.837 85.4408 235.943 85.6404 236.073 85.641C236.204 85.6417 236.572 86.2872 236.893 87.0756C237.213 87.864 237.604 88.5089 237.76 88.5089C237.916 88.5089 238.044 88.7241 238.044 88.9871C238.044 89.2501 238.176 89.4653 238.338 89.4653C238.5 89.4653 238.712 89.7162 238.809 90.0232C239.242 91.3886 244.817 97.0833 246.463 97.8414C246.861 98.025 247.187 98.2957 247.187 98.443C247.187 98.5899 247.4 98.7104 247.66 98.7104C247.92 98.7104 248.133 98.8217 248.133 98.9578C248.133 99.0939 248.77 99.4883 249.549 99.8345C250.327 100.181 250.966 100.571 250.968 100.703C250.969 100.835 251.325 100.942 251.759 100.942H252.547V101.225V101.508L253.729 101.732C254.38 101.855 255.053 102.068 255.227 102.206C255.535 102.45 256.107 102.583 259.325 103.162C261.333 103.523 266.998 103.523 269.257 103.161C272.167 102.695 273.184 102.467 273.513 102.206C273.687 102.068 274.361 101.855 275.011 101.732L276.193 101.508V101.225C276.193 101.07 276.395 100.942 276.64 100.942C277.054 100.942 278.985 100.032 279.346 99.6662C279.433 99.5785 279.929 99.2916 280.449 99.0286C280.97 98.7659 281.748 98.2284 282.18 97.8337C282.612 97.4394 283.073 97.1164 283.205 97.1164C283.537 97.1164 288.138 92.4129 289.198 90.9904C289.675 90.3503 290.065 89.6735 290.065 89.4867C290.065 89.2995 290.176 89.1465 290.31 89.1465C290.445 89.1465 290.835 88.5022 291.177 87.7148C291.52 86.9277 291.906 86.2821 292.036 86.2802C292.166 86.2786 292.274 86.0982 292.275 85.8789C292.277 85.6598 292.627 84.7631 293.054 83.8864C293.48 83.0097 293.834 81.9698 293.839 81.5751L293.849 80.8578H294.123H294.397L294.591 79.5029C294.698 78.7579 294.921 77.4307 295.086 76.5541L295.388 74.9601L295.382 54.2383L295.376 33.5165L294.849 32.0035L294.321 30.4905L293.232 29.1152L292.143 27.7399L290.289 26.8291L288.435 25.9186H286.167H283.899L282.41 26.4931C281.592 26.8094 280.922 27.1919 280.922 27.3433C280.922 27.4948 280.745 27.6201 280.528 27.6216C280.312 27.6232 279.779 28.0788 279.346 28.6341C278.912 29.1895 278.416 29.7978 278.242 29.9862C278.069 30.1746 277.716 30.8307 277.457 31.4443L276.988 32.5601L276.806 53.2819L276.625 74.0037L276.38 74.9601C276.246 75.4861 275.936 76.3685 275.691 76.921C275.447 77.4735 275.247 78.0833 275.247 78.2759C275.247 78.4687 275.141 78.6294 275.011 78.6332C274.881 78.6371 274.349 79.2836 273.828 80.0701C273.308 80.8562 272.659 81.5719 272.386 81.6605C272.114 81.7492 271.617 82.0727 271.283 82.3801C270.671 82.9424 269.106 83.6568 267.027 84.3228L265.902 84.6834H263.796H261.69V84.3646V84.0458H261.028C260.212 84.0458 258.273 83.1449 257.457 82.3861C257.123 82.0756 256.591 81.7383 256.275 81.637C255.959 81.5356 255.7 81.3529 255.7 81.2314C255.7 81.11 255.38 80.6535 254.99 80.217C254.6 79.7803 253.891 78.6865 253.414 77.7862L252.547 76.1489V75.3343V74.5195L252.232 74.3225L251.916 74.1255L251.916 53.821L251.916 33.5165L251.333 31.9643L250.75 30.4121L249.678 29.0275C249.088 28.2659 248.429 27.6376 248.212 27.6309C247.995 27.6242 247.818 27.4753 247.818 27.3C247.818 27.1246 247.64 26.9802 247.424 26.9793C247.207 26.978 246.659 26.7819 246.207 26.5435L245.385 26.1096L243.685 25.9496C242.75 25.8613 241.559 25.8501 241.039 25.9244Z" fill="url(#paint0_linear_5994_20163)"/>
<path fill-rule="evenodd" clip-rule="evenodd" d="M344.8 24.8647C344.685 24.9806 343.622 25.265 342.438 25.4968C338.297 26.3065 338.481 26.2531 335.961 27.3712C335.325 27.6533 334.577 27.8841 334.298 27.8841H333.792V28.2043V28.5245H333.306C333.038 28.5245 331.379 29.4252 329.618 30.5257L326.417 32.5269L322.821 36.0785C320.843 38.0317 319.225 39.7623 319.225 39.924C319.225 40.0857 318.869 40.6066 318.434 41.0815C317.998 41.556 317.642 42.0949 317.642 42.2787C317.642 42.4625 317.521 42.613 317.374 42.613C317.226 42.613 316.838 43.2252 316.511 43.9738C316.185 44.7224 315.835 45.4067 315.734 45.4947C315.451 45.7422 314.476 47.9496 314.476 48.3447C314.476 48.5385 314.333 48.6966 314.159 48.6966H313.842V49.4971V50.2976H313.588C313.337 50.2976 312.709 52.5956 312.362 54.7803C312.264 55.3967 312.023 56.1024 311.827 56.3483L311.471 56.7959V63.7457V70.6954L311.827 71.1431C312.023 71.389 312.264 72.0947 312.362 72.7111C312.709 74.8957 313.337 77.1937 313.588 77.1937C313.728 77.1937 313.842 77.4118 313.842 77.6785C313.842 77.9449 313.978 78.4134 314.144 78.7191C314.309 79.0249 314.694 79.8513 314.998 80.5558C315.302 81.2602 315.629 81.9086 315.726 81.9966C315.822 82.0847 316.149 82.661 316.453 83.2774C317.04 84.4698 317.693 85.5754 317.966 85.8389C318.057 85.927 318.396 86.4191 318.72 86.9324C319.323 87.8894 320.835 89.6515 321.86 90.5928C322.177 90.8839 323.359 92.0228 324.486 93.1233C325.613 94.2241 326.61 95.1245 326.701 95.1245C326.793 95.1245 327.321 95.4703 327.876 95.893C329.752 97.3236 334.638 99.9274 335.446 99.9274H336.009V100.248V100.568H336.8H337.592V100.822C337.592 101.059 338.993 101.443 342.817 102.252L344.4 102.588L350.1 102.59L355.8 102.592L357.542 102.226C359.992 101.71 362.221 101.066 362.487 100.797C362.612 100.671 362.977 100.568 363.299 100.568C363.62 100.568 364.131 100.436 364.434 100.274C364.736 100.112 366.23 99.368 367.754 98.6204C369.278 97.8727 370.525 97.1404 370.525 96.9932C370.525 96.8459 370.67 96.7255 370.846 96.7255C371.367 96.7255 375.65 93.4832 376.901 92.1426L378.052 90.9089L378.522 89.7347C379.286 87.8257 379.708 86.324 379.708 85.5187C379.708 84.1522 378.428 80.7271 377.579 79.8196C377.364 79.5907 377.008 79.1453 376.786 78.8299C376.565 78.5142 375.78 77.8732 375.044 77.4047L373.704 76.5534H372.906H372.108V76.2332V75.913H370.069H368.029L367.833 76.2332L367.638 76.5534H366.865H366.092V76.839C366.092 76.9959 365.771 77.2085 365.379 77.3113C364.987 77.414 364.168 77.9379 363.558 78.4755C362.949 79.0131 361.737 79.9147 360.867 80.4789C359.996 81.0431 359.236 81.6153 359.178 81.7507C359.12 81.8858 358.74 81.9966 358.333 81.9966C357.927 81.9966 357.547 82.1049 357.489 82.2371C357.431 82.3693 356.434 82.7295 355.273 83.0376L353.163 83.5976H349.939H346.714L344.924 83.0818C343.939 82.7981 342.998 82.4379 342.833 82.2813C342.667 82.1247 342.336 81.9966 342.096 81.9966C340.881 81.9966 334.425 76.912 334.425 75.9549C334.425 75.7849 334.318 75.5982 334.188 75.5393C333.801 75.3654 332.209 72.761 332.209 72.3015C332.209 72.0691 332.085 71.7418 331.935 71.5744C331.183 70.738 330.247 66.3956 330.247 63.7457C330.247 61.0958 331.183 56.7533 331.935 55.917C332.085 55.7495 332.209 55.4223 332.209 55.1898C332.209 54.674 333.642 52.4086 334.797 51.0981C335.263 50.5698 335.921 49.8135 336.259 49.4171C336.598 49.0207 336.971 48.6966 337.089 48.6966C337.207 48.6966 337.687 48.3364 338.157 47.8961C338.626 47.4559 339.19 47.0957 339.41 47.0957C339.629 47.0957 339.809 46.9782 339.809 46.8347C339.809 46.5161 341.868 45.4947 342.511 45.4947C342.766 45.4947 342.975 45.367 342.975 45.2107C342.975 45.0548 343.367 44.8505 343.846 44.7567C344.325 44.6632 345.358 44.4163 346.142 44.2082L347.567 43.83L351.208 44.009L354.85 44.188L356.031 44.6219C356.682 44.8604 357.311 45.1547 357.43 45.2754C357.55 45.3961 357.848 45.4947 358.093 45.4947C358.566 45.4947 362.438 47.9323 363.242 48.7357C363.503 48.997 364.325 49.4552 365.069 49.7539L366.421 50.2976H368.886H371.35L372.917 49.4977C374.834 48.5186 376.374 47.1735 376.675 46.2135C376.799 45.8181 377.034 45.4947 377.196 45.4947H377.491V44.8732C377.491 44.5312 377.634 44.1627 377.808 44.0538L378.125 43.856V40.833V37.8101H377.808H377.491V37.3186C377.491 36.7073 376.647 35.3488 375.596 34.271C374.53 33.1769 371.269 30.7659 370.855 30.7659C370.673 30.7659 370.525 30.6218 370.525 30.4457C370.525 30.2696 370.38 30.1255 370.202 30.1255C370.024 30.1255 369.315 29.7653 368.625 29.325C367.935 28.8847 367.154 28.5245 366.89 28.5245H366.408V28.2043V27.8841H365.944C365.689 27.8841 364.941 27.6481 364.282 27.3593C361.91 26.3213 360.121 25.784 357.225 25.2406L355.483 24.914L350.246 24.784L345.008 24.654L344.8 24.8647ZM414.699 24.997C414.177 25.142 412.609 25.515 411.216 25.8256C409.823 26.1362 408.547 26.5102 408.382 26.6568C408.216 26.8035 407.836 26.9236 407.537 26.9236C407.238 26.9236 406.589 27.1266 406.096 27.3747C405.603 27.6229 404.344 28.2354 403.299 28.7355C402.254 29.236 401.352 29.7534 401.294 29.8853C401.236 30.0173 401.042 30.1255 400.863 30.1255C400.479 30.1255 396.064 33.313 395.911 33.7011C395.853 33.8477 395.664 33.9678 395.491 33.9678C394.896 33.9678 389.329 40.0316 388.923 41.1218C388.853 41.3095 388.565 41.7136 388.282 42.02C388 42.3264 387.273 43.5575 386.668 44.7563C386.062 45.9548 385.459 46.9836 385.329 47.0422C385.198 47.1011 385.091 47.3368 385.091 47.566C385.091 47.7953 384.879 48.3956 384.618 48.9003C384.358 49.4046 384.145 50.061 384.143 50.3587C384.142 50.6565 383.999 50.9892 383.825 51.0981C383.651 51.2069 383.508 51.6235 383.508 52.0241C383.508 52.4246 383.406 52.8559 383.281 52.9824C383.156 53.1086 382.806 54.3935 382.504 55.8372L381.955 58.4625V63.7457V69.0288L382.504 71.6541C382.806 73.0978 383.156 74.3828 383.281 74.5089C383.406 74.6354 383.508 75.0769 383.508 75.4903C383.508 75.9037 383.641 76.4922 383.804 76.798C384.492 78.088 385.091 79.5628 385.091 79.9647C385.091 80.2016 385.203 80.3957 385.338 80.3957C385.474 80.3957 385.862 81.1161 386.2 81.9966C386.538 82.8772 386.893 83.5976 386.989 83.5976C387.085 83.5976 387.432 84.1019 387.761 84.7183C388.089 85.3346 388.478 85.8389 388.624 85.8389C388.771 85.8389 388.891 86.0205 388.891 86.2424C388.891 86.4643 389.248 87.0345 389.683 87.5094C390.118 87.9839 390.475 88.4623 390.475 88.5718C390.475 88.7853 394.935 93.2632 396.205 94.324C397.515 95.4191 402.05 98.3264 402.447 98.3264C402.655 98.3264 402.824 98.4705 402.824 98.6466C402.824 98.8227 403.027 98.9668 403.274 98.9668C403.521 98.9668 404.198 99.2073 404.778 99.5012C406.735 100.493 406.931 100.568 407.57 100.568C407.921 100.568 408.208 100.676 408.208 100.808C408.209 100.94 409.384 101.31 410.821 101.631C412.257 101.951 414.009 102.357 414.713 102.534L415.993 102.855L421.046 102.702L426.099 102.548L427.841 102.223C428.799 102.044 430.366 101.654 431.324 101.357C432.282 101.06 433.458 100.744 433.937 100.656L434.807 100.495V100.211C434.807 100.055 434.986 99.9274 435.203 99.9274C435.421 99.9274 436.989 99.2249 438.687 98.3665L441.774 96.8055V97.4059V98.0062H442.091C442.265 98.0062 442.407 98.1987 442.407 98.4337C442.407 99.3017 445.515 101.595 447.788 102.404C450.792 103.473 454.244 102.434 456.988 99.6344L458.427 98.1663L459.046 96.7357L459.666 95.3051V63.5958V31.8865L458.795 30.1223C458.316 29.1518 457.555 27.9559 457.105 27.4647L456.286 26.5717L454.357 25.6268L452.429 24.6822H450.248H448.068L446.361 25.4987L444.654 26.3152L443.214 27.9347C442.422 28.8255 441.774 29.755 441.774 30V30.4457H441.435C441.248 30.4457 440.287 30.023 439.297 29.5062C438.308 28.9894 436.738 28.197 435.807 27.7452L434.116 26.9236H433.353C432.934 26.9236 432.591 26.8131 432.591 26.6783C432.591 26.5435 431.487 26.1871 430.137 25.8865C428.787 25.5861 427.255 25.2409 426.733 25.1199C426.21 24.9989 423.503 24.8622 420.716 24.8164L415.649 24.7328L414.699 24.997ZM493.707 25.0059C493.271 25.1465 491.847 25.5121 490.541 25.8189C489.236 26.1253 487.953 26.4894 487.691 26.6277C487.43 26.7663 486.289 27.3283 485.157 27.8768C483.074 28.886 481.962 29.5049 481.674 29.8159C481.586 29.9097 480.803 30.5126 479.932 31.1552C477.064 33.2723 472.49 38.5296 472.49 39.7088C472.49 39.8974 472.357 40.0514 472.195 40.0514C472.032 40.0514 471.8 40.3755 471.677 40.7719C471.555 41.1683 471.363 41.5643 471.25 41.6524C470.907 41.9198 469.322 45.9359 469.323 46.5353C469.323 46.8437 469.206 47.0957 469.061 47.0957H468.798L468.267 49.8974L467.736 52.699L467.745 74.1519L467.754 95.6048L468.385 97.0092L469.015 98.4138L470.604 99.9709L472.194 101.528H472.659C472.914 101.528 473.124 101.656 473.124 101.812V102.096L474.153 102.315C474.719 102.436 475.839 102.609 476.642 102.7L478.102 102.865L479.567 102.362C482.886 101.222 485.13 99.0744 486.194 96.0162L486.56 94.9644L486.729 73.5381L486.899 52.1118L487.294 51.9786C487.512 51.9053 487.69 51.6526 487.69 51.4176C487.69 50.0462 490.78 46.4498 492.809 45.4595C493.39 45.1761 494.279 44.7439 494.784 44.4989L495.703 44.0538H498.9H502.098L503.682 44.8428C505.399 45.6987 505.661 45.8809 506.945 47.1155C508.612 48.7181 509.242 49.6617 510.246 52.0587L510.648 53.0192L510.834 73.6716L511.02 94.324L511.277 95.4447C511.418 96.0611 511.869 97.103 512.278 97.7597C512.688 98.4167 513.023 99.0289 513.023 99.1205C513.023 99.3254 514.234 100.568 514.434 100.568C514.513 100.568 515.103 100.928 515.745 101.368L516.912 102.169H517.64C518.041 102.169 518.457 102.313 518.565 102.489L518.761 102.809H520.224C522.21 102.809 526.006 101.5 526.006 100.815C526.006 100.679 526.159 100.568 526.346 100.568C526.75 100.568 527.59 99.7663 527.59 99.3805C527.59 99.2307 527.875 98.9005 528.223 98.6466C528.571 98.3927 528.857 98.0367 528.858 97.8554C528.86 97.6742 529.107 97.0937 529.409 96.5654L529.958 95.6048L530.12 74.312L530.281 53.0192L530.892 51.5784C531.979 49.0155 534.574 46.0233 536.06 45.6189C536.452 45.5123 536.773 45.3167 536.773 45.1835C536.773 45.0506 537.561 44.6913 538.523 44.3852L540.273 43.8287L542.877 43.9607L545.481 44.0923L547.355 44.9875L549.23 45.8831L550.728 47.4386C551.552 48.2941 552.418 49.4315 552.652 49.9659C552.886 50.5006 553.185 50.938 553.317 50.938C553.448 50.938 553.556 51.2694 553.556 51.6744V52.4109L553.952 52.8108L554.348 53.211L554.429 74.2477L554.511 95.2846L554.859 96.0851C555.746 98.1305 556.21 98.9668 556.456 98.9668C556.603 98.9668 556.723 99.1301 556.723 99.3299C556.723 99.8256 558.038 100.929 559.484 101.646C560.143 101.973 560.928 102.368 561.231 102.524L561.781 102.809H564.006H566.231L566.781 102.535C568.905 101.475 569.683 100.96 570.686 99.9514C571.965 98.6662 572.312 98.0834 573.011 96.0559L573.497 94.6442L573.501 74.011L573.506 53.3778L573.151 51.4375C572.767 49.3444 572.014 46.3672 571.607 45.3346C571.468 44.9824 571.126 44.1681 570.847 43.5252C570.568 42.8823 570.339 42.1977 570.339 42.0043C570.339 41.8106 570.197 41.6524 570.023 41.6524C569.848 41.6524 569.706 41.4974 569.706 41.3082C569.706 41.119 569.064 39.9615 568.28 38.7358L566.855 36.5079L564.401 33.9972L561.948 31.4866L559.676 30.0057C558.426 29.1908 557.25 28.5245 557.063 28.5245C556.876 28.5245 556.722 28.4163 556.721 28.2844C556.721 28.1525 556.044 27.7791 555.217 27.4554C554.391 27.1314 553.429 26.7519 553.081 26.612C552.074 26.2076 549.119 25.3892 547.223 24.9899L545.481 24.6233L541.365 24.7664L537.248 24.9092L535.19 25.4513C534.058 25.7494 532.74 26.075 532.261 26.1746C531.781 26.2742 531.39 26.4836 531.39 26.6395V26.9236H530.598H529.806V27.2092C529.806 27.3661 529.431 27.5896 528.973 27.7061C528.006 27.9517 523.508 30.8869 521.89 32.3294C521.28 32.8727 520.685 33.3194 520.566 33.3223C520.448 33.3252 519.823 32.8231 519.176 32.2067C518.53 31.5904 517.901 31.0861 517.778 31.0861C517.655 31.0861 517.163 30.7454 516.684 30.3291C515.901 29.6494 511.309 27.1964 509.698 26.5982C509.35 26.4689 508.668 26.2015 508.182 26.0043C507.697 25.807 506.517 25.5525 505.561 25.4388C504.605 25.3252 503.747 25.1084 503.654 24.9573L503.486 24.6822L498.992 24.7161L494.498 24.7504L493.707 25.0059ZM673.255 25.0466C672.819 25.2381 671.929 25.6165 671.276 25.8877C670.623 26.1586 670.088 26.4782 670.088 26.5979C670.088 26.7174 669.732 27.0081 669.296 27.2437L668.505 27.6722V28.0641C668.505 28.2796 668.322 28.5271 668.098 28.6139C667.875 28.7006 667.34 29.4627 666.911 30.3073L666.13 31.8433V54.6628V77.4822L666.526 77.8822L666.921 78.2824V79.1725C666.921 80.5039 669.227 86.4662 669.851 86.746C669.981 86.805 670.088 86.9881 670.088 87.1533C670.088 87.5225 671.739 90.1205 672.067 90.2682C672.198 90.3271 672.305 90.5173 672.305 90.6908C672.305 91.1365 677.834 96.7255 678.275 96.7255C678.475 96.7255 678.638 96.8385 678.638 96.9765C678.638 97.1148 679.101 97.5 679.667 97.833C680.233 98.166 680.768 98.5227 680.855 98.6258C681.122 98.9428 684.483 100.568 684.87 100.568C685.071 100.568 685.283 100.676 685.341 100.808C685.48 101.125 688.528 102.169 689.315 102.169C689.655 102.169 690.039 102.276 690.169 102.408C690.486 102.728 695.182 103.419 697.163 103.436C699.244 103.455 703.982 102.843 704.679 102.466C704.982 102.303 705.499 102.169 705.828 102.169C706.713 102.169 713.242 99.2864 713.788 98.6549C713.875 98.5541 714.347 98.2134 714.838 97.8977C716.873 96.5872 721.377 92.3289 721.384 91.709C721.386 91.5038 721.508 91.2876 721.655 91.2287C722.514 90.8864 726.771 83.4679 726.771 82.3139C726.771 82.0219 726.873 81.6803 726.997 81.5541C727.347 81.2 728.006 78.5648 728.406 75.913L728.769 73.5115L728.785 53.4995L728.801 33.4875L728.42 31.9173L728.038 30.3474L727.182 29.1956C726.71 28.5623 725.89 27.6526 725.36 27.1739C723.149 25.1779 719.316 24.1404 717.207 24.9675C714.823 25.9018 713.788 26.4122 713.788 26.652C713.788 26.8012 713.61 26.9248 713.392 26.9264C712.935 26.93 711.762 28.3334 710.621 30.2423L709.829 31.5663L709.652 53.0192L709.474 74.4721L709.202 75.2726C708.396 77.6356 705.092 81.9659 704.077 81.9883C703.874 81.9928 703.66 82.1045 703.602 82.2368C703.544 82.369 702.957 82.7292 702.298 83.0373L701.1 83.5976H700.16H699.221V83.9463V84.295L697.4 84.1409C694.899 83.9296 693.296 83.5006 691.642 82.6008C689.261 81.3053 687.007 78.6823 685.896 75.913L685.446 74.7923L685.261 53.9798L685.075 33.1673L684.82 32.0466C684.68 31.4303 684.098 30.1841 683.526 29.2773L682.487 27.6286L680.998 26.5931C679.329 25.4321 677.956 24.9761 675.63 24.8109L674.046 24.6985L673.255 25.0466ZM760.654 24.9861L760.179 25.3127L758.873 25.3178L757.567 25.3226L756.22 25.8029C755.48 26.067 754.536 26.2832 754.122 26.2832C753.709 26.2832 753.37 26.3914 753.37 26.5233C753.37 26.6556 752.516 27.0398 751.471 27.3776C750.426 27.7151 749.571 28.1112 749.571 28.2578C749.571 28.4044 749.368 28.5245 749.121 28.5245C748.556 28.5245 746.725 29.5632 746.723 29.8853C746.722 30.0173 746.569 30.1255 746.383 30.1255C745.535 30.1255 739.121 36.0506 739.121 36.8335C739.121 36.9933 738.937 37.3144 738.712 37.5472C738.192 38.0851 737 40.6598 736.717 41.8573C736.597 42.361 736.397 42.9172 736.271 43.0933C735.578 44.0593 735.299 50.7433 735.793 54.5401L736.033 56.3812H736.31H736.587V57.1206V57.8599L737.052 58.4814C737.308 58.823 737.522 59.3552 737.527 59.6632C737.533 59.9712 737.663 60.2236 737.817 60.2236C737.971 60.2236 738.18 60.4759 738.283 60.7839C738.649 61.885 740.37 64.0777 742.094 65.639C742.597 66.0946 743.193 66.6476 743.417 66.8675C743.642 67.0878 743.978 67.2678 744.165 67.2678C744.351 67.2678 744.504 67.3792 744.504 67.5153C744.504 67.6514 745.003 68.034 745.612 68.366C746.222 68.6981 746.721 69.091 746.721 69.2392C746.721 69.3878 746.897 69.5091 747.112 69.5091C747.327 69.5091 748.218 69.8549 749.091 70.2779C751.967 71.6698 752.983 72.0707 753.637 72.0707C753.992 72.0707 754.371 72.2148 754.479 72.3909L754.674 72.7111H755.452C755.879 72.7111 756.477 72.8398 756.779 72.9967C757.526 73.3851 760.914 73.9976 763.553 74.2211L765.72 74.4049V74.6463C765.72 74.7792 766.326 74.9588 767.066 75.0453C769.006 75.2716 771.03 75.8492 771.896 76.423L772.647 76.9206L772.845 77.8309L773.042 78.7409L772.827 79.9016L772.612 81.0623L771.37 82.3299L770.129 83.5976H769.508H768.887V83.9383V84.2793L765.641 84.1435C761.961 83.9895 760.539 83.6962 758.279 82.6258L756.695 81.8759L754.362 79.5065L752.028 77.1367L750.34 76.0446L748.651 74.9524H747.863H747.075L746.879 74.6322L746.683 74.312H745.137H743.591L743.396 74.6322L743.2 74.9524H742.453C741.658 74.9524 739.759 75.9104 739.756 76.3132C739.755 76.4455 739.598 76.5534 739.406 76.5534C738.901 76.5534 736.935 78.8302 736.71 79.6752C736.605 80.0716 736.424 80.3957 736.308 80.3957C736.043 80.3957 735.321 83.4919 735.321 84.6286V85.481L735.637 85.6788L735.954 85.8767V86.9785V88.0803H736.271C736.445 88.0803 736.587 88.2724 736.587 88.5074C736.587 89.2515 739.125 92.6481 741.232 94.7243C742.349 95.8251 743.327 96.7255 743.405 96.7255C743.484 96.7255 744.548 97.3739 745.771 98.1663C746.993 98.9588 748.148 99.6072 748.337 99.6072C748.526 99.6072 749.059 99.8057 749.522 100.048C752.248 101.48 754.771 102.151 760.495 102.967C765.33 103.657 770.128 103.487 773.954 102.491C777.335 101.612 779.02 101.058 779.02 100.827C779.02 100.685 779.242 100.568 779.513 100.568C779.784 100.568 781.102 99.8493 782.442 98.9713L784.878 97.3748L786.79 95.3691C788.907 93.1467 790.42 91.1858 790.42 90.6633C790.42 90.4753 790.563 90.3216 790.737 90.3216H791.053V89.7078C791.053 89.3703 791.16 89.0463 791.291 88.9874C791.643 88.8289 792.637 86.5446 792.637 85.8921C792.637 85.5812 792.758 85.1896 792.906 85.0225C793.054 84.855 793.361 83.4653 793.588 81.9339L794 79.1495L793.588 76.2396L793.175 73.33L792.906 73.1616C792.758 73.069 792.637 72.7191 792.637 72.3835C792.637 71.6438 790.108 66.6274 789.735 66.6274C789.589 66.6274 789.47 66.4628 789.47 66.2617C789.47 65.7437 784.843 61.1774 783.137 60.0119C781.084 58.6091 779.092 57.5509 777.279 56.9C776.408 56.5874 775.41 56.2106 775.062 56.063C773.811 55.5324 770.027 54.7883 765.245 54.1322C762.772 53.7928 760.179 53.269 758.595 52.7893L757.329 52.4054L756.617 51.5918L755.904 50.7779L755.904 49.7373L755.904 48.6966H756.22H756.537V48.2125V47.728L758.2 46.6592C760.267 45.3301 761.183 45.0781 763.979 45.0692L766.195 45.0621L767.396 45.4076C768.055 45.5978 769.48 46.2033 770.562 46.7534L772.529 47.7537L773.976 49.1058C778.31 53.1543 779.23 53.7483 782.266 54.4575L784.087 54.8827L784.894 54.5113C785.337 54.307 785.96 54.1399 786.278 54.1399C787.739 54.1399 792.003 50.8992 792.003 49.7898C792.003 49.5407 792.146 49.337 792.32 49.337H792.637V48.5554V47.7738L792.953 47.576L793.27 47.3781V44.5152V41.6524H792.953H792.637V41.0229C792.637 40.321 791.661 38.0297 791.291 37.8636C791.16 37.8047 791.053 37.5792 791.053 37.3625C791.053 36.4694 785.925 32.0402 783.231 30.6064C782.569 30.2548 781.84 29.7864 781.61 29.5658C781.38 29.3455 780.988 29.1649 780.739 29.1649C780.49 29.1649 780.287 29.0208 780.287 28.8447V28.5245H779.672C779.334 28.5245 778.97 28.3804 778.862 28.2043C778.754 28.0282 778.425 27.8832 778.131 27.8822C777.836 27.8809 777.187 27.6648 776.688 27.4019C776.189 27.1387 775.541 26.9236 775.247 26.9236C774.954 26.9236 774.578 26.8057 774.413 26.662C773.644 25.9928 768.254 25.036 763.979 24.81L761.129 24.6595L760.654 24.9861ZM588.935 25.3399L587.422 25.5922L586.063 26.3975C584.491 27.3289 582.689 29.0961 582.689 29.706C582.689 29.9366 582.576 30.1255 582.439 30.1255C582.301 30.1255 581.945 31.0496 581.647 32.1792L581.106 34.2329V72.5827V110.932L581.623 112.794L582.139 114.656H582.414C582.565 114.656 582.689 114.849 582.689 115.086C582.689 115.651 585.058 118.083 585.861 118.34C586.206 118.451 586.489 118.66 586.489 118.804C586.489 119.22 588.355 119.542 590.764 119.542C593.173 119.542 595.039 119.22 595.039 118.804C595.039 118.66 595.322 118.451 595.667 118.34C596.47 118.083 598.839 115.651 598.839 115.086C598.839 114.849 598.95 114.656 599.086 114.656C599.222 114.656 599.532 114.188 599.775 113.616L600.216 112.575L600.345 105.277L600.475 97.9797L601.161 98.1955C601.538 98.3139 601.895 98.5362 601.953 98.6889C602.011 98.8416 602.331 98.9668 602.665 98.9668H603.272V99.287C603.272 99.4631 603.429 99.6072 603.62 99.6072C603.811 99.6072 604.489 99.8381 605.124 100.12C607.266 101.07 607.544 101.177 608.814 101.538C609.51 101.736 610.579 102.045 611.189 102.224C612.814 102.703 615.694 103.097 619.105 103.306L622.114 103.49L625.122 103.001C630.208 102.173 633.989 101.249 633.989 100.834V100.568H634.78H635.572V100.283V99.9988L636.657 99.7929C637.254 99.6796 637.788 99.4833 637.845 99.3568C637.901 99.2303 638.766 98.7001 639.768 98.1788C640.769 97.6572 641.588 97.1171 641.588 96.9781C641.588 96.8391 641.802 96.7255 642.063 96.7255C642.325 96.7255 642.538 96.591 642.538 96.4267C642.538 96.2625 642.788 96.0473 643.093 95.9484C644.062 95.6339 648.232 91.7279 650.332 89.1673C651.009 88.3412 651.742 87.4809 651.959 87.2551C652.177 87.0297 652.355 86.7534 652.355 86.641C652.355 86.5286 652.711 85.9644 653.147 85.3871C653.582 84.8098 653.938 84.1832 653.938 83.9943C653.938 83.8054 654.045 83.603 654.176 83.5441C654.511 83.3936 655.522 81.3905 655.522 80.8766C655.522 80.6416 655.629 80.4011 655.759 80.3422C656.124 80.1783 657.105 77.8892 657.105 77.2017C657.105 76.8659 657.247 76.5021 657.422 76.3933C657.596 76.2844 657.738 75.8726 657.738 75.4778C657.738 75.083 657.866 74.6236 658.023 74.4561C658.179 74.289 658.491 72.9992 658.717 71.5904L659.127 69.0288L659.13 64.226L659.132 59.4231L658.734 57.0216C658.516 55.7008 658.202 54.3701 658.038 54.0643C657.873 53.7586 657.738 53.146 657.738 52.7035V51.8986H657.422H657.105V51.2274C657.105 50.8586 656.902 50.174 656.653 49.7065C656.405 49.239 655.8 47.9563 655.308 46.8555C654.816 45.755 654.307 44.8543 654.176 44.8543C654.045 44.8543 653.938 44.6878 653.938 44.4842C653.938 44.2809 653.582 43.6421 653.147 43.0648C652.711 42.4875 652.354 41.8977 652.352 41.7539C652.351 41.6101 651.852 40.9617 651.244 40.313C650.636 39.6643 650.138 39.0451 650.138 38.9365C650.138 38.3903 644.028 32.7552 643.049 32.3988C642.855 32.3284 642.621 32.1545 642.528 32.012C642.435 31.8699 641.111 31.0271 639.584 30.1389L636.81 28.5245H636.191C635.85 28.5245 635.572 28.4102 635.572 28.2706C635.572 28.131 634.752 27.7541 633.751 27.433C632.75 27.1118 631.645 26.7353 631.297 26.5963C630.119 26.1256 625.612 25.3658 622.905 25.1811L620.214 24.9976L616.885 25.3011C613.793 25.5829 611.29 26.0401 609.764 26.6018C609.415 26.7298 608.56 27.0167 607.864 27.2389C606.19 27.7727 604.22 28.6388 601.61 29.9894L599.472 31.095V30.6103V30.1255H599.156C598.981 30.1255 598.839 29.9439 598.839 29.722C598.839 29.3003 597.898 28.1982 596.558 27.0491C594.907 25.6338 591.608 24.8942 588.935 25.3399ZM424.833 44.2479C425.529 44.4342 426.491 44.6635 426.97 44.757C427.449 44.8505 427.841 45.0548 427.841 45.2107C427.841 45.367 428.05 45.4947 428.305 45.4947C428.948 45.4947 431.008 46.5161 431.008 46.8347C431.008 46.9782 431.156 47.0957 431.337 47.0957C431.726 47.0957 431.862 47.202 434.276 49.3898C435.291 50.3085 436.32 51.4516 436.565 51.9293C436.809 52.4073 437.196 52.9923 437.424 53.229C438.075 53.9046 439.557 57.281 439.557 58.0869C439.557 58.4871 439.72 58.979 439.918 59.1794L440.279 59.5441L440.294 63.486L440.309 67.4279L439.886 68.7086C439.018 71.3326 438.442 72.7088 438.212 72.7098C438.081 72.7104 437.974 72.9496 437.974 73.2413C437.974 73.5327 437.618 74.2435 437.182 74.8208C436.747 75.3981 436.391 75.96 436.391 76.0699C436.391 76.4326 433.154 79.4143 432.55 79.6083C432.224 79.7127 431.958 79.9327 431.958 80.0969C431.958 80.2612 431.744 80.3957 431.483 80.3957C431.221 80.3957 431.008 80.5071 431.008 80.6432C431.008 80.874 430.027 81.4296 428.158 82.2576C427.722 82.4503 426.592 82.8307 425.646 83.1029L423.926 83.5976H420.674H417.422L415.603 83.1186C414.602 82.8551 413.64 82.4948 413.466 82.3181C413.291 82.1414 412.97 81.9966 412.753 81.9966C412.536 81.9966 411.47 81.4702 410.384 80.8266L408.41 79.6567L406.43 77.6254C405.342 76.5082 404.36 75.3056 404.25 74.953C404.139 74.6005 403.916 74.312 403.753 74.312C403.591 74.312 403.458 74.0959 403.458 73.8317V73.3514H403.141H402.824V72.7722C402.824 72.4536 402.615 71.9135 402.36 71.5715C402.104 71.2298 401.89 70.626 401.885 70.2296L401.875 69.5091H401.599H401.324L401.124 68.0683C401.014 67.2758 400.834 65.9739 400.724 65.175L400.523 63.7226L400.944 60.8524L401.364 57.9822H401.619C401.76 57.9822 401.879 57.6582 401.885 57.2618C401.89 56.8654 402.104 56.2615 402.36 55.9198C402.615 55.5779 402.824 55.0377 402.824 54.7191V54.1399H403.141H403.458V53.6596C403.458 53.3955 403.591 53.1793 403.753 53.1793C403.916 53.1793 404.134 52.9072 404.238 52.5748C404.343 52.2424 405.243 51.1221 406.239 50.0856L408.049 48.2013L410.179 46.8478C411.351 46.1037 412.498 45.4947 412.728 45.4947C412.959 45.4947 413.283 45.3756 413.449 45.2302C413.614 45.0849 414.391 44.7791 415.174 44.5508C415.958 44.3228 416.742 44.0929 416.916 44.0404C417.09 43.9876 418.658 43.9363 420.399 43.9267L423.566 43.9091L424.833 44.2479ZM624.805 44.6792C625.415 44.7996 626.199 45.0192 626.547 45.1678C626.895 45.316 627.857 45.7025 628.683 46.0265C629.51 46.3503 630.187 46.7236 630.187 46.8555C630.188 46.9874 630.341 47.0957 630.526 47.0957C630.968 47.0957 632.882 48.5615 634.295 49.9806C636.611 52.3084 638.377 55.2593 639.658 58.9428L640.048 60.0635L640.216 63.2654L640.383 66.4673L640.01 67.9082C639.805 68.7006 639.561 69.7454 639.468 70.2296C639.376 70.7137 639.191 71.1101 639.059 71.1101C638.926 71.1101 638.736 71.5222 638.636 72.0255L638.455 72.9409L636.965 75.1474C635.263 77.6657 632.994 79.9743 631.329 80.8811C630.702 81.2224 630.189 81.613 630.189 81.7491C630.189 81.8852 630.002 81.9966 629.773 81.9966C629.544 81.9966 628.725 82.3098 627.952 82.6924C626.074 83.6219 624.314 83.9668 620.568 84.1387L617.439 84.2822L617.101 83.9399C616.914 83.7516 616.395 83.5976 615.945 83.5976H615.129L613.08 82.7145C609.238 81.0588 606.038 78.4659 604.172 75.4983C603.596 74.5816 603.016 73.7837 602.882 73.7251C602.748 73.6662 602.639 73.371 602.639 73.0687C602.639 72.7664 602.516 72.3822 602.367 72.2148C602.014 71.8209 601.195 69.1899 600.725 66.9396L600.355 65.1708L600.52 63.4175C600.799 60.4419 601.686 56.9931 602.365 56.2372C602.516 56.0697 602.639 55.6736 602.639 55.3566V54.7803H602.95H603.26L603.459 53.9798C603.568 53.5395 603.754 53.1793 603.872 53.1793C603.989 53.1793 604.318 52.7829 604.601 52.2988C605.174 51.3193 607.957 48.3764 608.31 48.3764C608.434 48.3764 608.812 48.1196 609.15 47.8055C609.488 47.4917 610.334 46.9686 611.03 46.6429C611.727 46.3173 612.858 45.7816 613.544 45.4524C614.23 45.1236 615.156 44.8521 615.602 44.8495C616.049 44.8466 616.627 44.7 616.889 44.5232L617.364 44.2018L620.53 44.3311C622.272 44.4022 624.196 44.5588 624.805 44.6792Z" fill="black"/>
<defs>
<linearGradient id="paint0_linear_5994_20163" x1="147.694" y1="0.422241" x2="147.694" y2="145" gradientUnits="userSpaceOnUse">
<stop offset="0.0560898" stop-color="#EF3F3F"/>
<stop offset="0.35934" stop-color="#ED1E24"/>
<stop offset="0.855038" stop-color="#B21F24"/>
</linearGradient>
</defs>
</svg>

